<mxfile host="app.diagrams.net" modified="2023-11-02T11:16:13.306Z" agent="Mozilla/5.0 (Macintosh; Intel Mac OS X 10_15_7) AppleWebKit/537.36 (KHTML, like Gecko) Chrome/118.0.0.0 Safari/537.36" etag="loshOa--J1X6a_ZkSx1H" version="22.0.8" type="device">
  <diagram name="PÃ¡gina-1" id="4MRiItUD6FQc88NlOMB_">
    <mxGraphModel dx="1342" dy="797" grid="1" gridSize="10" guides="1" tooltips="1" connect="1" arrows="1" fold="1" page="1" pageScale="1" pageWidth="827" pageHeight="1169" math="1" shadow="0">
      <root>
        <mxCell id="0" />
        <mxCell id="1" parent="0" />
        <mxCell id="jLAoZJQD1tobSa1uNUK7-19" value="0" style="text;html=1;strokeColor=none;fillColor=none;align=center;verticalAlign=middle;whiteSpace=wrap;rounded=0;" parent="1" vertex="1">
          <mxGeometry y="470" width="60" height="30" as="geometry" />
        </mxCell>
        <mxCell id="jLAoZJQD1tobSa1uNUK7-20" value="0" style="text;html=1;strokeColor=none;fillColor=none;align=center;verticalAlign=middle;whiteSpace=wrap;rounded=0;" parent="1" vertex="1">
          <mxGeometry y="490" width="60" height="30" as="geometry" />
        </mxCell>
        <mxCell id="jLAoZJQD1tobSa1uNUK7-30" value="" style="group" parent="1" vertex="1" connectable="0">
          <mxGeometry x="200" y="460" width="130" height="130" as="geometry" />
        </mxCell>
        <mxCell id="jLAoZJQD1tobSa1uNUK7-31" style="edgeStyle=orthogonalEdgeStyle;rounded=0;orthogonalLoop=1;jettySize=auto;html=1;exitX=1;exitY=0.25;exitDx=0;exitDy=0;entryX=0;entryY=0.25;entryDx=0;entryDy=0;" parent="jLAoZJQD1tobSa1uNUK7-30" source="jLAoZJQD1tobSa1uNUK7-33" edge="1">
          <mxGeometry relative="1" as="geometry">
            <mxPoint x="120" y="30" as="targetPoint" />
          </mxGeometry>
        </mxCell>
        <mxCell id="jLAoZJQD1tobSa1uNUK7-32" style="edgeStyle=orthogonalEdgeStyle;rounded=0;orthogonalLoop=1;jettySize=auto;html=1;exitX=1;exitY=0.75;exitDx=0;exitDy=0;entryX=0;entryY=0.75;entryDx=0;entryDy=0;" parent="jLAoZJQD1tobSa1uNUK7-30" source="jLAoZJQD1tobSa1uNUK7-33" edge="1">
          <mxGeometry relative="1" as="geometry">
            <mxPoint x="120" y="50" as="targetPoint" />
          </mxGeometry>
        </mxCell>
        <mxCell id="jLAoZJQD1tobSa1uNUK7-33" value="&lt;b&gt;LSTM&lt;/b&gt;" style="rounded=0;whiteSpace=wrap;html=1;fillColor=#d5e8d4;strokeColor=#82b366;" parent="jLAoZJQD1tobSa1uNUK7-30" vertex="1">
          <mxGeometry y="20" width="80" height="40" as="geometry" />
        </mxCell>
        <mxCell id="jLAoZJQD1tobSa1uNUK7-34" value="" style="endArrow=classic;html=1;rounded=0;entryX=0.5;entryY=1;entryDx=0;entryDy=0;" parent="jLAoZJQD1tobSa1uNUK7-30" target="jLAoZJQD1tobSa1uNUK7-33" edge="1">
          <mxGeometry width="50" height="50" relative="1" as="geometry">
            <mxPoint x="40" y="100" as="sourcePoint" />
            <mxPoint x="230" as="targetPoint" />
          </mxGeometry>
        </mxCell>
        <mxCell id="jLAoZJQD1tobSa1uNUK7-35" value="&lt;font style=&quot;font-size: 18px;&quot;&gt;$$\text{are}$$&lt;/font&gt;" style="text;html=1;strokeColor=none;fillColor=none;align=center;verticalAlign=middle;whiteSpace=wrap;rounded=0;" parent="jLAoZJQD1tobSa1uNUK7-30" vertex="1">
          <mxGeometry x="10" y="100" width="60" height="30" as="geometry" />
        </mxCell>
        <mxCell id="jLAoZJQD1tobSa1uNUK7-36" value="hn" style="text;html=1;strokeColor=none;fillColor=none;align=center;verticalAlign=middle;whiteSpace=wrap;rounded=0;" parent="jLAoZJQD1tobSa1uNUK7-30" vertex="1">
          <mxGeometry x="70" y="50" width="60" height="30" as="geometry" />
        </mxCell>
        <mxCell id="jLAoZJQD1tobSa1uNUK7-37" value="cn" style="text;html=1;strokeColor=none;fillColor=none;align=center;verticalAlign=middle;whiteSpace=wrap;rounded=0;" parent="jLAoZJQD1tobSa1uNUK7-30" vertex="1">
          <mxGeometry x="70" width="60" height="30" as="geometry" />
        </mxCell>
        <mxCell id="jLAoZJQD1tobSa1uNUK7-38" value="" style="group" parent="1" vertex="1" connectable="0">
          <mxGeometry x="320" y="460" width="130" height="130" as="geometry" />
        </mxCell>
        <mxCell id="jLAoZJQD1tobSa1uNUK7-39" style="edgeStyle=orthogonalEdgeStyle;rounded=0;orthogonalLoop=1;jettySize=auto;html=1;exitX=1;exitY=0.25;exitDx=0;exitDy=0;entryX=0;entryY=0.25;entryDx=0;entryDy=0;" parent="jLAoZJQD1tobSa1uNUK7-38" source="jLAoZJQD1tobSa1uNUK7-41" edge="1">
          <mxGeometry relative="1" as="geometry">
            <mxPoint x="120" y="30" as="targetPoint" />
          </mxGeometry>
        </mxCell>
        <mxCell id="jLAoZJQD1tobSa1uNUK7-40" style="edgeStyle=orthogonalEdgeStyle;rounded=0;orthogonalLoop=1;jettySize=auto;html=1;exitX=1;exitY=0.75;exitDx=0;exitDy=0;entryX=0;entryY=0.75;entryDx=0;entryDy=0;" parent="jLAoZJQD1tobSa1uNUK7-38" source="jLAoZJQD1tobSa1uNUK7-41" edge="1">
          <mxGeometry relative="1" as="geometry">
            <mxPoint x="120" y="50" as="targetPoint" />
          </mxGeometry>
        </mxCell>
        <mxCell id="jLAoZJQD1tobSa1uNUK7-41" value="&lt;b&gt;LSTM&lt;/b&gt;" style="rounded=0;whiteSpace=wrap;html=1;fillColor=#d5e8d4;strokeColor=#82b366;" parent="jLAoZJQD1tobSa1uNUK7-38" vertex="1">
          <mxGeometry y="20" width="80" height="40" as="geometry" />
        </mxCell>
        <mxCell id="jLAoZJQD1tobSa1uNUK7-42" value="" style="endArrow=classic;html=1;rounded=0;entryX=0.5;entryY=1;entryDx=0;entryDy=0;" parent="jLAoZJQD1tobSa1uNUK7-38" target="jLAoZJQD1tobSa1uNUK7-41" edge="1">
          <mxGeometry width="50" height="50" relative="1" as="geometry">
            <mxPoint x="40" y="100" as="sourcePoint" />
            <mxPoint x="230" as="targetPoint" />
          </mxGeometry>
        </mxCell>
        <mxCell id="jLAoZJQD1tobSa1uNUK7-43" value="&lt;font style=&quot;font-size: 18px;&quot;&gt;$$\text{you?}$$&lt;/font&gt;" style="text;html=1;strokeColor=none;fillColor=none;align=center;verticalAlign=middle;whiteSpace=wrap;rounded=0;" parent="jLAoZJQD1tobSa1uNUK7-38" vertex="1">
          <mxGeometry x="10" y="100" width="60" height="30" as="geometry" />
        </mxCell>
        <mxCell id="jLAoZJQD1tobSa1uNUK7-44" value="hn" style="text;html=1;strokeColor=none;fillColor=none;align=center;verticalAlign=middle;whiteSpace=wrap;rounded=0;" parent="jLAoZJQD1tobSa1uNUK7-38" vertex="1">
          <mxGeometry x="70" y="50" width="60" height="30" as="geometry" />
        </mxCell>
        <mxCell id="jLAoZJQD1tobSa1uNUK7-45" value="cn" style="text;html=1;strokeColor=none;fillColor=none;align=center;verticalAlign=middle;whiteSpace=wrap;rounded=0;" parent="jLAoZJQD1tobSa1uNUK7-38" vertex="1">
          <mxGeometry x="70" width="60" height="30" as="geometry" />
        </mxCell>
        <mxCell id="jLAoZJQD1tobSa1uNUK7-78" value="" style="rounded=0;whiteSpace=wrap;html=1;fillColor=#fff2cc;strokeColor=#d6b656;" parent="1" vertex="1">
          <mxGeometry x="450" y="430" width="10" height="60" as="geometry" />
        </mxCell>
        <mxCell id="jLAoZJQD1tobSa1uNUK7-79" value="" style="rounded=0;whiteSpace=wrap;html=1;fillColor=#dae8fc;strokeColor=#6c8ebf;" parent="1" vertex="1">
          <mxGeometry x="450" y="510" width="10" height="60" as="geometry" />
        </mxCell>
        <mxCell id="jLAoZJQD1tobSa1uNUK7-94" value="" style="endArrow=classic;html=1;rounded=0;entryX=0;entryY=0.25;entryDx=0;entryDy=0;" parent="1" target="jLAoZJQD1tobSa1uNUK7-88" edge="1">
          <mxGeometry width="50" height="50" relative="1" as="geometry">
            <mxPoint x="470" y="490" as="sourcePoint" />
            <mxPoint x="760" y="380" as="targetPoint" />
          </mxGeometry>
        </mxCell>
        <mxCell id="jLAoZJQD1tobSa1uNUK7-95" value="" style="endArrow=classic;html=1;rounded=0;entryX=0;entryY=0.25;entryDx=0;entryDy=0;" parent="1" edge="1">
          <mxGeometry width="50" height="50" relative="1" as="geometry">
            <mxPoint x="470" y="510" as="sourcePoint" />
            <mxPoint x="510" y="510" as="targetPoint" />
          </mxGeometry>
        </mxCell>
        <mxCell id="jLAoZJQD1tobSa1uNUK7-86" style="edgeStyle=orthogonalEdgeStyle;rounded=0;orthogonalLoop=1;jettySize=auto;html=1;exitX=1;exitY=0.25;exitDx=0;exitDy=0;entryX=0;entryY=0.25;entryDx=0;entryDy=0;" parent="1" source="jLAoZJQD1tobSa1uNUK7-88" edge="1">
          <mxGeometry relative="1" as="geometry">
            <mxPoint x="630" y="490" as="targetPoint" />
          </mxGeometry>
        </mxCell>
        <mxCell id="jLAoZJQD1tobSa1uNUK7-87" style="edgeStyle=orthogonalEdgeStyle;rounded=0;orthogonalLoop=1;jettySize=auto;html=1;exitX=1;exitY=0.75;exitDx=0;exitDy=0;entryX=0;entryY=0.75;entryDx=0;entryDy=0;" parent="1" source="jLAoZJQD1tobSa1uNUK7-88" edge="1">
          <mxGeometry relative="1" as="geometry">
            <mxPoint x="630" y="510" as="targetPoint" />
          </mxGeometry>
        </mxCell>
        <mxCell id="jLAoZJQD1tobSa1uNUK7-88" value="&lt;b&gt;LSTM&lt;/b&gt;" style="rounded=0;whiteSpace=wrap;html=1;fillColor=#e1d5e7;strokeColor=#9673a6;" parent="1" vertex="1">
          <mxGeometry x="510" y="480" width="80" height="40" as="geometry" />
        </mxCell>
        <mxCell id="jLAoZJQD1tobSa1uNUK7-89" value="" style="endArrow=classic;html=1;rounded=0;entryX=0.5;entryY=1;entryDx=0;entryDy=0;" parent="1" target="jLAoZJQD1tobSa1uNUK7-88" edge="1">
          <mxGeometry width="50" height="50" relative="1" as="geometry">
            <mxPoint x="550" y="560" as="sourcePoint" />
            <mxPoint x="740" y="460" as="targetPoint" />
          </mxGeometry>
        </mxCell>
        <mxCell id="jLAoZJQD1tobSa1uNUK7-91" value="hn" style="text;html=1;strokeColor=none;fillColor=none;align=center;verticalAlign=middle;whiteSpace=wrap;rounded=0;" parent="1" vertex="1">
          <mxGeometry x="580" y="510" width="60" height="30" as="geometry" />
        </mxCell>
        <mxCell id="jLAoZJQD1tobSa1uNUK7-92" value="cn" style="text;html=1;strokeColor=none;fillColor=none;align=center;verticalAlign=middle;whiteSpace=wrap;rounded=0;" parent="1" vertex="1">
          <mxGeometry x="580" y="460" width="60" height="30" as="geometry" />
        </mxCell>
        <mxCell id="jLAoZJQD1tobSa1uNUK7-98" value="" style="rounded=0;whiteSpace=wrap;html=1;fillColor=#f8cecc;strokeColor=#b85450;rotation=90;" parent="1" vertex="1">
          <mxGeometry x="545" y="540" width="10" height="60" as="geometry" />
        </mxCell>
        <mxCell id="jLAoZJQD1tobSa1uNUK7-99" value="&amp;lt;sos&amp;gt;" style="text;html=1;strokeColor=none;fillColor=none;align=center;verticalAlign=middle;whiteSpace=wrap;rounded=0;" parent="1" vertex="1">
          <mxGeometry x="520" y="570" width="60" height="30" as="geometry" />
        </mxCell>
        <mxCell id="jLAoZJQD1tobSa1uNUK7-108" value="" style="endArrow=classic;html=1;rounded=0;exitX=0.5;exitY=0;exitDx=0;exitDy=0;entryX=0;entryY=0;entryDx=0;entryDy=0;" parent="1" source="jLAoZJQD1tobSa1uNUK7-88" target="jLAoZJQD1tobSa1uNUK7-118" edge="1">
          <mxGeometry width="50" height="50" relative="1" as="geometry">
            <mxPoint x="620" y="390" as="sourcePoint" />
            <mxPoint x="630" y="570" as="targetPoint" />
            <Array as="points">
              <mxPoint x="550" y="440" />
              <mxPoint x="600" y="440" />
              <mxPoint x="600" y="570" />
            </Array>
          </mxGeometry>
        </mxCell>
        <mxCell id="jLAoZJQD1tobSa1uNUK7-10" style="edgeStyle=orthogonalEdgeStyle;rounded=0;orthogonalLoop=1;jettySize=auto;html=1;exitX=1;exitY=0.25;exitDx=0;exitDy=0;entryX=0;entryY=0.25;entryDx=0;entryDy=0;" parent="1" source="jLAoZJQD1tobSa1uNUK7-1" edge="1">
          <mxGeometry relative="1" as="geometry">
            <mxPoint x="200" y="490" as="targetPoint" />
          </mxGeometry>
        </mxCell>
        <mxCell id="jLAoZJQD1tobSa1uNUK7-12" style="edgeStyle=orthogonalEdgeStyle;rounded=0;orthogonalLoop=1;jettySize=auto;html=1;exitX=1;exitY=0.75;exitDx=0;exitDy=0;entryX=0;entryY=0.75;entryDx=0;entryDy=0;" parent="1" source="jLAoZJQD1tobSa1uNUK7-1" edge="1">
          <mxGeometry relative="1" as="geometry">
            <mxPoint x="200" y="510" as="targetPoint" />
          </mxGeometry>
        </mxCell>
        <mxCell id="jLAoZJQD1tobSa1uNUK7-1" value="&lt;b&gt;LSTM&lt;/b&gt;" style="rounded=0;whiteSpace=wrap;html=1;fillColor=#d5e8d4;strokeColor=#82b366;" parent="1" vertex="1">
          <mxGeometry x="80" y="480" width="80" height="40" as="geometry" />
        </mxCell>
        <mxCell id="jLAoZJQD1tobSa1uNUK7-13" value="" style="endArrow=classic;html=1;rounded=0;entryX=0.5;entryY=1;entryDx=0;entryDy=0;" parent="1" target="jLAoZJQD1tobSa1uNUK7-1" edge="1">
          <mxGeometry width="50" height="50" relative="1" as="geometry">
            <mxPoint x="120" y="560" as="sourcePoint" />
            <mxPoint x="310" y="460" as="targetPoint" />
          </mxGeometry>
        </mxCell>
        <mxCell id="jLAoZJQD1tobSa1uNUK7-14" value="&lt;span style=&quot;font-size: 18px;&quot;&gt;$$\text{How}$$&lt;/span&gt;" style="text;html=1;strokeColor=none;fillColor=none;align=center;verticalAlign=middle;whiteSpace=wrap;rounded=0;" parent="1" vertex="1">
          <mxGeometry x="90" y="560" width="60" height="30" as="geometry" />
        </mxCell>
        <mxCell id="jLAoZJQD1tobSa1uNUK7-15" value="hn" style="text;html=1;strokeColor=none;fillColor=none;align=center;verticalAlign=middle;whiteSpace=wrap;rounded=0;" parent="1" vertex="1">
          <mxGeometry x="150" y="510" width="60" height="30" as="geometry" />
        </mxCell>
        <mxCell id="jLAoZJQD1tobSa1uNUK7-16" value="cn" style="text;html=1;strokeColor=none;fillColor=none;align=center;verticalAlign=middle;whiteSpace=wrap;rounded=0;" parent="1" vertex="1">
          <mxGeometry x="150" y="460" width="60" height="30" as="geometry" />
        </mxCell>
        <mxCell id="jLAoZJQD1tobSa1uNUK7-110" value="&lt;font style=&quot;font-size: 18px;&quot;&gt;$$\text{Â¿CÃ³mo}$$&lt;/font&gt;" style="text;html=1;strokeColor=none;fillColor=none;align=center;verticalAlign=middle;whiteSpace=wrap;rounded=0;" parent="1" vertex="1">
          <mxGeometry x="520.16" y="330" width="60" height="30" as="geometry" />
        </mxCell>
        <mxCell id="jLAoZJQD1tobSa1uNUK7-111" style="edgeStyle=orthogonalEdgeStyle;rounded=0;orthogonalLoop=1;jettySize=auto;html=1;exitX=1;exitY=0.25;exitDx=0;exitDy=0;entryX=0;entryY=0.25;entryDx=0;entryDy=0;" parent="1" source="jLAoZJQD1tobSa1uNUK7-113" edge="1">
          <mxGeometry relative="1" as="geometry">
            <mxPoint x="750" y="490" as="targetPoint" />
          </mxGeometry>
        </mxCell>
        <mxCell id="jLAoZJQD1tobSa1uNUK7-112" style="edgeStyle=orthogonalEdgeStyle;rounded=0;orthogonalLoop=1;jettySize=auto;html=1;exitX=1;exitY=0.75;exitDx=0;exitDy=0;entryX=0;entryY=0.75;entryDx=0;entryDy=0;" parent="1" source="jLAoZJQD1tobSa1uNUK7-113" edge="1">
          <mxGeometry relative="1" as="geometry">
            <mxPoint x="750" y="510" as="targetPoint" />
          </mxGeometry>
        </mxCell>
        <mxCell id="jLAoZJQD1tobSa1uNUK7-113" value="&lt;b&gt;LSTM&lt;/b&gt;" style="rounded=0;whiteSpace=wrap;html=1;fillColor=#e1d5e7;strokeColor=#9673a6;" parent="1" vertex="1">
          <mxGeometry x="630" y="480" width="80" height="40" as="geometry" />
        </mxCell>
        <mxCell id="jLAoZJQD1tobSa1uNUK7-114" value="" style="endArrow=classic;html=1;rounded=0;entryX=0.5;entryY=1;entryDx=0;entryDy=0;" parent="1" target="jLAoZJQD1tobSa1uNUK7-113" edge="1">
          <mxGeometry width="50" height="50" relative="1" as="geometry">
            <mxPoint x="670" y="560" as="sourcePoint" />
            <mxPoint x="860" y="460" as="targetPoint" />
          </mxGeometry>
        </mxCell>
        <mxCell id="jLAoZJQD1tobSa1uNUK7-115" value="hn" style="text;html=1;strokeColor=none;fillColor=none;align=center;verticalAlign=middle;whiteSpace=wrap;rounded=0;" parent="1" vertex="1">
          <mxGeometry x="700" y="510" width="60" height="30" as="geometry" />
        </mxCell>
        <mxCell id="jLAoZJQD1tobSa1uNUK7-116" value="cn" style="text;html=1;strokeColor=none;fillColor=none;align=center;verticalAlign=middle;whiteSpace=wrap;rounded=0;" parent="1" vertex="1">
          <mxGeometry x="700" y="460" width="60" height="30" as="geometry" />
        </mxCell>
        <mxCell id="jLAoZJQD1tobSa1uNUK7-117" value="" style="rounded=0;whiteSpace=wrap;html=1;fillColor=#f8cecc;strokeColor=#b85450;rotation=90;" parent="1" vertex="1">
          <mxGeometry x="665" y="540" width="10" height="60" as="geometry" />
        </mxCell>
        <mxCell id="jLAoZJQD1tobSa1uNUK7-118" value="$$\text{Â¿CÃ³mo}$$" style="text;html=1;strokeColor=none;fillColor=none;align=center;verticalAlign=middle;whiteSpace=wrap;rounded=0;" parent="1" vertex="1">
          <mxGeometry x="640" y="570" width="60" height="30" as="geometry" />
        </mxCell>
        <mxCell id="jLAoZJQD1tobSa1uNUK7-120" value="&lt;font style=&quot;font-size: 18px;&quot;&gt;$$\text{estÃ¡s?}$$&lt;/font&gt;" style="text;html=1;strokeColor=none;fillColor=none;align=center;verticalAlign=middle;whiteSpace=wrap;rounded=0;" parent="1" vertex="1">
          <mxGeometry x="640.16" y="330" width="60" height="30" as="geometry" />
        </mxCell>
        <mxCell id="jLAoZJQD1tobSa1uNUK7-123" value="&lt;b&gt;LSTM&lt;/b&gt;" style="rounded=0;whiteSpace=wrap;html=1;fillColor=#e1d5e7;strokeColor=#9673a6;" parent="1" vertex="1">
          <mxGeometry x="750" y="480" width="80" height="40" as="geometry" />
        </mxCell>
        <mxCell id="jLAoZJQD1tobSa1uNUK7-124" value="" style="endArrow=classic;html=1;rounded=0;entryX=0.5;entryY=1;entryDx=0;entryDy=0;" parent="1" target="jLAoZJQD1tobSa1uNUK7-123" edge="1">
          <mxGeometry width="50" height="50" relative="1" as="geometry">
            <mxPoint x="790" y="560" as="sourcePoint" />
            <mxPoint x="980" y="460" as="targetPoint" />
          </mxGeometry>
        </mxCell>
        <mxCell id="jLAoZJQD1tobSa1uNUK7-127" value="" style="rounded=0;whiteSpace=wrap;html=1;fillColor=#f8cecc;strokeColor=#b85450;rotation=90;" parent="1" vertex="1">
          <mxGeometry x="785" y="540" width="10" height="60" as="geometry" />
        </mxCell>
        <mxCell id="jLAoZJQD1tobSa1uNUK7-128" value="$$\text{estÃ¡s?}$$" style="text;html=1;strokeColor=none;fillColor=none;align=center;verticalAlign=middle;whiteSpace=wrap;rounded=0;" parent="1" vertex="1">
          <mxGeometry x="760" y="570" width="60" height="30" as="geometry" />
        </mxCell>
        <mxCell id="jLAoZJQD1tobSa1uNUK7-130" value="&lt;font style=&quot;font-size: 18px;&quot;&gt;$$\text{&amp;lt;eos&amp;gt;}$$&lt;/font&gt;" style="text;html=1;strokeColor=none;fillColor=none;align=center;verticalAlign=middle;whiteSpace=wrap;rounded=0;" parent="1" vertex="1">
          <mxGeometry x="760.16" y="330" width="60" height="30" as="geometry" />
        </mxCell>
        <mxCell id="jLAoZJQD1tobSa1uNUK7-141" value="" style="endArrow=classic;html=1;rounded=0;entryX=0;entryY=0.25;entryDx=0;entryDy=0;" parent="1" edge="1">
          <mxGeometry width="50" height="50" relative="1" as="geometry">
            <mxPoint x="40" y="490" as="sourcePoint" />
            <mxPoint x="80" y="490" as="targetPoint" />
          </mxGeometry>
        </mxCell>
        <mxCell id="jLAoZJQD1tobSa1uNUK7-142" value="" style="endArrow=classic;html=1;rounded=0;entryX=0;entryY=0.25;entryDx=0;entryDy=0;" parent="1" edge="1">
          <mxGeometry width="50" height="50" relative="1" as="geometry">
            <mxPoint x="40" y="509.43" as="sourcePoint" />
            <mxPoint x="80" y="509.43" as="targetPoint" />
          </mxGeometry>
        </mxCell>
        <mxCell id="jLAoZJQD1tobSa1uNUK7-146" value="" style="shape=curlyBracket;whiteSpace=wrap;html=1;rounded=1;labelPosition=left;verticalLabelPosition=middle;align=right;verticalAlign=middle;rotation=-90;fillColor=#f5f5f5;strokeColor=#CCCCCC;fontColor=#333333;size=0.5;" parent="1" vertex="1">
          <mxGeometry x="660" y="470" width="20" height="320" as="geometry" />
        </mxCell>
        <mxCell id="jLAoZJQD1tobSa1uNUK7-147" value="&lt;font color=&quot;#cccccc&quot;&gt;Codificador&lt;/font&gt;" style="text;html=1;strokeColor=none;fillColor=none;align=center;verticalAlign=middle;whiteSpace=wrap;rounded=0;" parent="1" vertex="1">
          <mxGeometry x="210" y="400" width="60" height="30" as="geometry" />
        </mxCell>
        <mxCell id="jLAoZJQD1tobSa1uNUK7-148" value="" style="shape=curlyBracket;whiteSpace=wrap;html=1;rounded=1;labelPosition=left;verticalLabelPosition=middle;align=right;verticalAlign=middle;rotation=90;fillColor=#f5f5f5;strokeColor=#CCCCCC;fontColor=#333333;" parent="1" vertex="1">
          <mxGeometry x="230.16" y="279.84" width="20" height="320.32" as="geometry" />
        </mxCell>
        <mxCell id="jLAoZJQD1tobSa1uNUK7-149" value="&lt;font color=&quot;#cccccc&quot;&gt;Decodificador&lt;/font&gt;" style="text;html=1;strokeColor=none;fillColor=none;align=center;verticalAlign=middle;whiteSpace=wrap;rounded=0;" parent="1" vertex="1">
          <mxGeometry x="640.16" y="640" width="60" height="30" as="geometry" />
        </mxCell>
        <mxCell id="M3d5ekCvtuNN92mA5-Jm-1" value="" style="endArrow=classic;html=1;rounded=0;" parent="1" edge="1">
          <mxGeometry width="50" height="50" relative="1" as="geometry">
            <mxPoint x="550" y="440" as="sourcePoint" />
            <mxPoint x="550" y="420" as="targetPoint" />
          </mxGeometry>
        </mxCell>
        <mxCell id="M3d5ekCvtuNN92mA5-Jm-2" value="" style="endArrow=classic;html=1;rounded=0;exitX=0.5;exitY=0;exitDx=0;exitDy=0;entryX=0;entryY=0;entryDx=0;entryDy=0;" parent="1" target="jLAoZJQD1tobSa1uNUK7-128" edge="1">
          <mxGeometry width="50" height="50" relative="1" as="geometry">
            <mxPoint x="670" y="480" as="sourcePoint" />
            <mxPoint x="750" y="570" as="targetPoint" />
            <Array as="points">
              <mxPoint x="670" y="440" />
              <mxPoint x="720" y="440" />
              <mxPoint x="720" y="570" />
            </Array>
          </mxGeometry>
        </mxCell>
        <mxCell id="M3d5ekCvtuNN92mA5-Jm-5" value="" style="endArrow=classic;html=1;rounded=0;entryX=0.5;entryY=1;entryDx=0;entryDy=0;exitX=0.5;exitY=0;exitDx=0;exitDy=0;" parent="1" source="jLAoZJQD1tobSa1uNUK7-123" edge="1">
          <mxGeometry width="50" height="50" relative="1" as="geometry">
            <mxPoint x="790.12" y="440" as="sourcePoint" />
            <mxPoint x="790.12" y="420" as="targetPoint" />
          </mxGeometry>
        </mxCell>
        <mxCell id="M3d5ekCvtuNN92mA5-Jm-7" value="" style="endArrow=classic;html=1;rounded=0;entryX=0.5;entryY=1;entryDx=0;entryDy=0;" parent="1" edge="1">
          <mxGeometry width="50" height="50" relative="1" as="geometry">
            <mxPoint x="669.8" y="440" as="sourcePoint" />
            <mxPoint x="669.8" y="420" as="targetPoint" />
          </mxGeometry>
        </mxCell>
        <mxCell id="feMh0CC2xISIuwvhVigZ-1" value="fc" style="rounded=1;whiteSpace=wrap;html=1;fillColor=#f5f5f5;fontColor=#333333;strokeColor=#666666;" vertex="1" parent="1">
          <mxGeometry x="505" y="400" width="90" height="20" as="geometry" />
        </mxCell>
        <mxCell id="feMh0CC2xISIuwvhVigZ-2" value="fc" style="rounded=1;whiteSpace=wrap;html=1;fillColor=#f5f5f5;fontColor=#333333;strokeColor=#666666;" vertex="1" parent="1">
          <mxGeometry x="625" y="400" width="90" height="20" as="geometry" />
        </mxCell>
        <mxCell id="feMh0CC2xISIuwvhVigZ-3" value="fc" style="rounded=1;whiteSpace=wrap;html=1;fillColor=#f5f5f5;fontColor=#333333;strokeColor=#666666;" vertex="1" parent="1">
          <mxGeometry x="745" y="400" width="90" height="20" as="geometry" />
        </mxCell>
        <mxCell id="feMh0CC2xISIuwvhVigZ-4" value="" style="endArrow=classic;html=1;rounded=0;exitX=0.5;exitY=0;exitDx=0;exitDy=0;" edge="1" parent="1" source="feMh0CC2xISIuwvhVigZ-1">
          <mxGeometry width="50" height="50" relative="1" as="geometry">
            <mxPoint x="470" y="620" as="sourcePoint" />
            <mxPoint x="550" y="360" as="targetPoint" />
          </mxGeometry>
        </mxCell>
        <mxCell id="feMh0CC2xISIuwvhVigZ-5" value="" style="endArrow=classic;html=1;rounded=0;exitX=0.5;exitY=0;exitDx=0;exitDy=0;" edge="1" parent="1">
          <mxGeometry width="50" height="50" relative="1" as="geometry">
            <mxPoint x="669.5" y="400" as="sourcePoint" />
            <mxPoint x="669.5" y="360" as="targetPoint" />
          </mxGeometry>
        </mxCell>
        <mxCell id="feMh0CC2xISIuwvhVigZ-6" value="" style="endArrow=classic;html=1;rounded=0;exitX=0.5;exitY=0;exitDx=0;exitDy=0;" edge="1" parent="1">
          <mxGeometry width="50" height="50" relative="1" as="geometry">
            <mxPoint x="789.5" y="400" as="sourcePoint" />
            <mxPoint x="789.5" y="360" as="targetPoint" />
          </mxGeometry>
        </mxCell>
      </root>
    </mxGraphModel>
  </diagram>
</mxfile>
